PathFileType	4	(X/Y/Z)	s10c0201.trc
DataRate	CameraRate	NumFrames	NumMarkers	Units	OrigDataRate	OrigDataStartFrame	OrigNumFrames
200	200	7	50	mm	200	750	2000
Frame#	Time	racr			lacr			c7			jug			rlel			rdr			llel			ldr			s2			lic			ric			lasi			rasi			rpsi			lpsi			rgt			lgt			rth1			rth2			rth3			rth4			rlfc			rmfc			rsh1			rsh2			rsh3			rsh4			rlmal			rmmal			rcal			rtoe			rmt5			lth1			lth2			lth4			lth3			llfc			lmfc			llmal			lmmal			lcal			lmt5			lsh1			lsh2			lsh3			lsh4			ltoe			SBIKE			LBIKE			RBIKE			
		X1	Y1	Z1	X2	Y2	Z2	X3	Y3	Z3	X4	Y4	Z4	X5	Y5	Z5	X6	Y6	Z6	X7	Y7	Z7	X8	Y8	Z8	X9	Y9	Z9	X10	Y10	Z10	X11	Y11	Z11	X12	Y12	Z12	X13	Y13	Z13	X14	Y14	Z14	X15	Y15	Z15	X16	Y16	Z16	X17	Y17	Z17	X18	Y18	Z18	X19	Y19	Z19	X20	Y20	Z20	X21	Y21	Z21	X22	Y22	Z22	X23	Y23	Z23	X24	Y24	Z24	X25	Y25	Z25	X26	Y26	Z26	X27	Y27	Z27	X28	Y28	Z28	X29	Y29	Z29	X30	Y30	Z30	X31	Y31	Z31	X32	Y32	Z32	X33	Y33	Z33	X34	Y34	Z34	X35	Y35	Z35	X36	Y36	Z36	X37	Y37	Z37	X38	Y38	Z38	X39	Y39	Z39	X40	Y40	Z40	X41	Y41	Z41	X42	Y42	Z42	X43	Y43	Z43	X44	Y44	Z44	X45	Y45	Z45	X46	Y46	Z46	X47	Y47	Z47	X48	Y48	Z48	X49	Y49	Z49	X50	Y50	Z50	
750	3.7500	491.447694	1204.493592	-106.423555	493.589121	1188.794558	-402.890680	453.667023	1256.460505	-257.409693	423.182046	1107.093964	-247.538403	420.816636	989.363810	36.178868	602.200806	912.922521	-36.535694	416.232486	967.843068	-557.076923	594.826220	910.722314	-446.435803	-93.498976	1115.590394	-222.878771	65.767527	1107.061228	-382.464016	98.062963	1106.291822	-83.006921	77.137221	1014.156021	-351.283376	80.117399	1030.593087	-96.675409	-40.572046	1170.701708	-166.882478	-41.186983	1173.266459	-279.780495	-24.467832	1025.138418	-31.334462	-35.600732	984.696468	-412.943152	76.636039	918.543608	-15.980323	158.808052	886.932411	-33.946374	211.049146	819.788960	-39.795894	176.416146	916.838507	-47.490197	290.461192	746.440990	-62.164498	267.785730	733.158970	-179.735321	190.004889	689.047951	-30.577107	135.945595	619.541179	-43.843496	56.518365	585.892081	-45.933833	155.364041	598.942112	-70.170851	-31.111563	519.556517	-60.626502	-0.345598	518.968571	-139.181359	-86.090805	530.379051	-107.882419	100.268264	372.318068	-101.975014	18.700750	401.531738	-41.990814	48.504381	878.991523	-422.761847	123.191961	837.778211	-405.685742	146.843384	864.149018	-395.876920	167.444349	762.016373	-394.168563	246.442171	684.329230	-368.950425	233.496914	673.864156	-255.460173	180.525404	310.351243	-383.842017	196.311791	313.916543	-301.385660	131.452005	269.821460	-342.240685	306.538101	239.368063	-405.797182	202.113912	567.190463	-407.278212	222.785013	483.374784	-394.412322	197.618906	398.025985	-394.092722	250.383721	485.264124	-368.440171	385.524785	278.673385	-350.112807	-217.998299	833.339992	-214.495399	-104.067538	79.929598	-417.959248	-103.996122	80.444318	-18.326477	
751	3.7550	489.634661	1207.557719	-103.441657	494.889942	1189.937111	-401.223648	453.338351	1258.272122	-255.896016	423.639740	1109.261633	-245.347714	420.253461	989.798922	35.624348	602.406920	913.077973	-36.385001	417.457007	969.611477	-556.703723	595.363375	910.829157	-446.197587	-93.555654	1114.858352	-224.092588	66.258456	1105.394457	-383.308624	97.504805	1107.654656	-83.603118	77.497438	1012.709032	-351.710904	79.840753	1031.129238	-97.811632	-40.862791	1170.317327	-168.894485	-41.590205	1172.265715	-281.268864	-24.015750	1026.112143	-31.876709	-35.707368	982.886128	-413.316633	78.480443	920.883760	-16.283732	160.988453	890.438538	-34.376721	214.592592	824.246769	-39.629265	178.248493	920.780592	-47.925535	294.972924	752.046641	-62.145651	272.566993	738.059834	-179.835110	194.736150	694.528348	-30.427958	140.322677	625.149285	-43.763308	60.661532	591.994360	-45.653215	159.562012	604.664359	-70.317415	-27.247401	526.113989	-60.481325	3.480624	525.683850	-139.197949	-82.245601	536.719003	-108.191390	103.993740	378.773774	-102.131283	22.221348	408.107908	-42.048533	47.047753	876.100425	-423.670527	121.693500	834.128895	-407.349032	145.131666	859.694728	-396.716113	163.864741	757.233034	-394.458392	241.944065	679.322262	-369.239059	226.805574	670.262126	-256.671976	177.776618	304.874289	-383.907057	193.632477	308.317850	-301.661319	128.676175	264.938489	-342.261790	303.545132	232.712579	-405.667750	198.031306	562.052292	-407.654834	219.006427	478.264058	-394.747907	194.246020	392.893236	-394.539342	246.474097	480.327587	-368.682513	382.863019	271.297799	-349.829244	-217.976445	833.358361	-214.401114	-104.022210	80.175504	-418.189317	-103.973880	80.418314	-18.341876	
752	3.7600	487.822742	1210.390980	-100.469276	496.060957	1191.217976	-399.440188	452.932139	1260.252304	-254.272273	423.970671	1111.413587	-243.109130	419.613539	990.403587	35.487947	602.642530	913.307688	-36.239180	418.668311	971.466752	-556.250190	596.082584	910.943590	-446.066873	-93.739021	1114.194820	-225.183417	66.709744	1103.775080	-384.143921	96.925891	1109.039381	-83.958671	77.932144	1011.406087	-352.157466	80.726796	1032.603230	-97.585662	-41.175481	1169.771605	-171.085556	-41.850018	1171.637163	-283.023717	-23.471015	1026.991303	-32.368670	-35.902122	981.171556	-413.783835	80.288737	923.585344	-15.736551	163.381378	894.095164	-34.564065	218.080613	828.785567	-39.464288	180.173523	924.579054	-48.230137	299.532325	757.646595	-62.095342	277.978708	743.483798	-180.154417	199.509960	699.970233	-30.183676	144.785230	630.835199	-43.705833	65.027027	597.873913	-45.603934	163.914649	610.354436	-70.408491	-23.258773	532.710499	-60.439130	7.473327	532.100904	-139.102641	-78.081279	544.118660	-107.068616	107.836358	385.094058	-102.197106	26.130571	414.582835	-42.111492	45.472222	873.486790	-424.656580	119.251292	830.210195	-408.148286	143.285281	855.350209	-397.603014	160.151566	752.459173	-394.952127	237.065706	674.484888	-369.687141	221.370823	666.404976	-257.405724	174.776586	299.699909	-383.898524	190.747480	302.839598	-301.864700	125.771864	260.277195	-342.226132	300.230856	226.245930	-405.507445	193.854548	556.891847	-408.011393	215.094389	473.302396	-395.107031	191.241308	388.104370	-395.763079	242.692511	475.417367	-368.711736	380.018710	263.953483	-349.634687	-217.986719	833.397388	-214.412212	-103.999477	80.279898	-418.376820	-103.965900	80.411009	-18.326401	
753	3.7650	485.911334	1213.422175	-97.669473	497.224088	1192.672202	-397.650227	452.391082	1262.335590	-252.624583	424.227363	1113.629655	-240.938096	419.161949	990.487095	34.654220	602.735081	913.786977	-35.978985	419.869791	973.531903	-555.766091	596.747476	910.968667	-446.164452	-93.899715	1113.511528	-226.155398	67.093344	1102.264527	-384.960432	96.326296	1110.407704	-84.251570	78.286499	1010.119788	-352.380633	81.222129	1033.379519	-97.952444	-41.746991	1169.416306	-172.898023	-42.534444	1170.416099	-284.126190	-22.810866	1027.692460	-32.906135	-36.145715	979.653923	-414.314655	82.387851	925.488545	-16.706532	165.864899	897.615146	-34.670933	221.443062	833.354906	-39.368228	182.130036	928.447033	-48.383063	304.121177	763.341656	-62.002326	282.044145	747.993748	-179.925599	204.259030	705.368669	-30.031780	149.370280	636.515626	-43.608459	69.498793	603.641530	-45.591658	168.385567	616.042577	-70.436952	-18.794501	539.008420	-60.189139	11.673083	538.532125	-139.138235	-73.910814	550.360021	-107.326326	111.898518	391.248494	-102.306010	30.462673	420.975109	-41.920770	43.735542	871.058465	-425.678196	116.753832	826.482736	-409.094001	141.228456	851.131744	-398.618332	156.107813	747.902758	-395.662476	231.823392	669.623179	-370.281596	216.011559	662.282461	-258.286955	171.619610	294.353779	-383.708044	187.799319	297.250960	-301.907400	122.391757	256.127776	-342.703652	296.688160	219.945677	-405.418906	189.596749	551.814070	-408.207497	210.960474	468.488559	-395.486011	186.934668	382.789182	-395.402077	238.418753	470.599276	-368.884976	376.783264	256.850597	-349.552484	-217.967542	833.420980	-214.440095	-103.974722	80.327661	-418.380632	-103.980403	80.449007	-18.322945	
754	3.7700	483.951517	1216.397987	-94.933965	498.340295	1194.192400	-395.767128	451.704579	1264.534619	-250.894550	424.422233	1115.871694	-238.547814	418.713063	990.773478	34.104185	603.024956	914.088547	-35.752229	420.983131	975.621003	-555.103486	597.497801	911.008478	-446.521154	-93.978648	1112.670039	-227.163318	67.419749	1100.937653	-385.788578	95.836106	1111.846250	-84.534580	78.793512	1009.009860	-352.648249	81.627007	1034.327332	-98.467180	-42.435413	1169.200029	-174.677379	-42.679084	1169.915106	-286.034849	-22.167316	1028.383689	-33.342080	-36.447326	978.397834	-414.824103	84.401844	927.617412	-16.870855	167.522648	901.693931	-34.236870	225.012317	837.884649	-39.286262	184.063946	932.404627	-48.397833	308.703007	769.056965	-61.971528	286.681410	753.021313	-179.951853	208.838624	710.817472	-29.723790	153.993415	642.278577	-43.414599	73.999073	609.514553	-45.428016	173.836410	621.720474	-70.005479	-14.245030	545.099602	-59.962128	15.961860	544.631997	-139.056416	-69.514838	556.463032	-107.217230	116.177457	397.245598	-102.486005	34.865903	427.096752	-41.977912	41.832799	868.930573	-426.656468	113.333963	822.388543	-409.098892	138.905549	847.128572	-399.721914	151.803920	743.697207	-396.609137	226.204914	664.998784	-371.254211	210.632252	658.103940	-259.407800	168.133446	289.373267	-383.702511	184.502579	292.325433	-302.142088	118.924376	252.028310	-342.635229	292.831604	213.847061	-405.323198	185.010461	546.837769	-409.020443	206.602905	463.529821	-395.913609	182.980154	377.803025	-395.634383	234.071631	465.910386	-369.156587	373.322293	249.814351	-349.406762	-217.864153	833.644207	-214.528543	-103.989572	80.312279	-418.400004	-103.953083	80.392273	-18.339942	
755	3.7750	482.011394	1219.373749	-92.138056	499.400053	1195.837999	-393.721061	450.749318	1266.740204	-249.594328	424.676040	1118.149266	-236.230605	418.086807	990.989803	33.499946	603.318190	914.330327	-35.479475	422.014253	977.829869	-554.397941	598.319418	911.052674	-447.109324	-94.017370	1111.709267	-228.139491	67.630509	1099.884304	-386.436964	95.491141	1112.786457	-85.707863	79.528160	1008.343715	-353.031108	82.197893	1035.056427	-98.819435	-43.002277	1168.604255	-176.298710	-43.035452	1169.055235	-287.445764	-21.420730	1029.010512	-33.839524	-36.767213	977.455822	-415.412780	86.320132	929.740149	-16.929444	169.973529	905.289564	-34.144351	228.700176	842.813314	-38.405947	185.985071	936.184281	-48.495860	313.321968	774.840552	-61.908836	291.097986	758.013571	-180.101142	213.495906	716.429927	-29.486401	158.647496	647.721991	-43.435470	78.701411	615.043682	-45.232784	178.431186	627.464539	-69.991019	-9.655903	550.971558	-59.693167	21.784881	551.085048	-139.345821	-64.864422	562.111207	-107.375269	120.708583	403.148941	-102.593073	39.450025	433.041675	-42.013596	39.729352	867.005599	-427.432567	110.348237	819.212152	-410.145605	136.383830	843.441492	-400.847183	147.276497	739.742994	-397.614653	220.336516	660.374314	-372.383115	205.590500	653.333332	-260.999886	164.389696	284.698962	-383.755907	180.971201	287.766577	-302.442627	115.240234	248.223081	-342.523389	288.754998	207.870500	-405.146690	179.985259	541.912269	-409.675248	201.996348	458.798610	-396.382861	178.821830	372.948111	-395.984736	229.443815	461.382980	-369.689947	369.609589	243.037842	-349.327365	-217.872461	833.650111	-214.533907	-104.015285	80.257510	-418.477961	-103.966710	80.412667	-18.342101	
756	3.7800	480.023046	1222.232612	-89.366351	500.419964	1197.572050	-391.614099	449.872106	1269.005879	-247.713205	424.801136	1120.447284	-233.894377	417.566350	991.158041	32.955838	603.600106	914.588397	-35.227794	422.898912	980.151551	-553.609171	599.121898	911.191496	-447.956939	-93.898700	1110.880783	-228.974991	67.741126	1099.014655	-387.090589	95.023365	1114.199680	-85.931812	80.253211	1007.922492	-353.398753	82.783151	1035.983567	-99.080808	-42.981687	1167.860633	-176.403347	-42.868541	1168.281278	-288.635584	-20.633969	1029.431284	-34.259600	-37.074387	976.805750	-415.960795	88.223954	931.881342	-16.942915	172.353634	908.842254	-34.063072	232.185638	847.411798	-38.376083	187.790156	940.038031	-48.632156	317.910279	780.619785	-61.890709	295.334037	762.925937	-180.325630	218.210594	721.906477	-29.414284	163.247983	653.131664	-43.243575	83.303071	620.517509	-45.229204	183.096714	633.183134	-69.849072	-4.880607	556.546926	-59.544221	25.420497	556.408619	-139.052997	-60.239502	567.782474	-107.279237	125.011116	408.825628	-102.777065	44.307968	438.838611	-42.023061	37.514675	865.685579	-428.293153	107.166583	816.350174	-411.166754	133.783777	840.035719	-402.164047	142.463094	736.155030	-398.589401	214.118830	655.923140	-374.040003	200.074715	649.004404	-262.411483	160.419931	280.224189	-383.778407	177.204353	283.303481	-302.706558	111.359516	244.643079	-342.528109	284.370044	202.237652	-405.076965	174.699779	537.195690	-410.635216	197.151666	454.216923	-397.094237	174.440417	368.131934	-396.341434	224.637483	456.808663	-370.225232	365.693123	236.422858	-349.230240	-217.885866	833.658759	-214.539641	-103.996412	80.292851	-418.403528	-103.962408	80.412381	-18.343375	
